<?xml version="1.0" ?><!DOCTYPE svg  PUBLIC '-//W3C//DTD SVG 1.1//EN'  'http://www.w3.org/Graphics/SVG/1.1/DTD/svg11.dtd'><svg height="40px" id="co_x5F_navigation" style="enable-background:new 0 0 40 40;" version="1.1" viewBox="0 0 40 40" width="40px" xml:space="preserve" xmlns="http://www.w3.org/2000/svg" xmlns:xlink="http://www.w3.org/1999/xlink"><path d="M28.614,36.975H11.419c-2.423,0-4.399-1.977-4.399-4.399  c0-8.34,0-15.406,0-16.206c0-2.423,1.976-4.399,4.399-4.399c0.001,0.023,15.904,0.002,17.195,0.002  c2.423-0.002,4.399,1.974,4.399,4.397c0,0.8,0,7.866,0,16.206C33.014,34.998,31.037,36.975,28.614,36.975z M29.97,16.764  c0-0.963-0.791-1.759-1.76-1.759H11.734c-0.969,0-1.759,0.791-1.759,1.759v15.487c0,0.97,0.796,1.76,1.759,1.76H28.21  c0.963,0,1.76-0.797,1.76-1.76V16.764z M27.484,26.923h-0.152c-0.306,0-0.558-0.25-0.558-0.557v-3.471  c0-0.103-0.085-0.187-0.186-0.187h-0.051c-0.102,0-0.186,0.086-0.186,0.187v8.637c0,0.461-0.376,0.837-0.836,0.837H25.5  c-0.46,0-0.836-0.376-0.836-0.837v-4.466c0-0.103-0.083-0.186-0.186-0.186h-0.05c-0.103,0-0.186,0.083-0.186,0.186v4.466  c0,0.461-0.376,0.837-0.836,0.837h-0.017c-0.459,0-0.836-0.376-0.836-0.837v-8.637c0-0.103-0.084-0.187-0.186-0.187h-0.051  c-0.101,0-0.186,0.087-0.186,0.187v3.471c0,0.305-0.252,0.557-0.557,0.557H21.42c-0.306,0-0.557-0.25-0.557-0.557v-3.91  c0-0.818,0.668-1.486,1.486-1.486h1.453c-0.576-0.257-0.979-0.833-0.979-1.504c0-0.911,0.739-1.65,1.65-1.65s1.65,0.739,1.65,1.65  c0,0.671-0.403,1.247-0.979,1.504h1.408c0.819,0,1.487,0.67,1.487,1.486v3.91C28.042,26.672,27.79,26.923,27.484,26.923z   M18.558,26.923h-0.152c-0.305,0-0.557-0.25-0.557-0.557v-3.471c0-0.103-0.086-0.187-0.186-0.187h-0.051  c-0.101,0-0.186,0.086-0.186,0.187v8.637c0,0.46-0.376,0.837-0.836,0.837h-0.017c-0.46,0-0.836-0.376-0.836-0.837v-4.466  c0-0.103-0.084-0.186-0.186-0.186h-0.05c-0.102,0-0.186,0.085-0.186,0.186v4.466c0,0.461-0.376,0.837-0.836,0.837h-0.017  c-0.459,0-0.836-0.376-0.836-0.837v-8.637c0-0.103-0.084-0.187-0.186-0.187H13.39c-0.1,0-0.186,0.087-0.186,0.187v3.471  c0,0.305-0.252,0.557-0.557,0.557h-0.152c-0.306,0-0.558-0.25-0.558-0.557v-3.91c0-0.818,0.668-1.486,1.486-1.486h1.453  c-0.576-0.257-0.979-0.833-0.979-1.504c0-0.911,0.739-1.65,1.65-1.65s1.65,0.739,1.65,1.65c0,0.671-0.403,1.247-0.979,1.504h1.408  c0.819,0,1.487,0.67,1.487,1.486v3.91C19.116,26.671,18.864,26.923,18.558,26.923z M27.595,10.529c-0.612,0.612-1.556,0.643-2.199,0  l-4.003-4.002c-0.544-0.546-0.545-1.437,0-1.982L21.538,4.4c0.546-0.545,1.437-0.545,1.982,0l1.466,1.466v-3.45  c0-0.772,0.629-1.401,1.401-1.401h0.216c0.772,0,1.401,0.629,1.401,1.401v3.449L29.471,4.4c0.545-0.545,1.436-0.545,1.981,0  l0.145,0.145c0.546,0.545,0.545,1.437,0,1.982L27.595,10.529z M18.453,7.602c-0.545,0.546-1.436,0.546-1.981,0l-1.466-1.466v3.45  c0,0.772-0.629,1.401-1.401,1.401h-0.216c-0.772,0-1.401-0.629-1.401-1.401V6.135L10.52,7.602c-0.545,0.546-1.436,0.546-1.982,0  L8.393,7.457c-0.545-0.546-0.544-1.437,0-1.982l4.003-4.002c0.643-0.644,1.587-0.612,2.199,0l4.002,4.002  c0.545,0.546,0.546,1.437,0,1.982L18.453,7.602z" style="fill-rule:evenodd;clip-rule:evenodd;"/></svg>