<?xml version="1.0" ?><!DOCTYPE svg  PUBLIC '-//W3C//DTD SVG 1.1//EN'  'http://www.w3.org/Graphics/SVG/1.1/DTD/svg11.dtd'><svg enable-background="new 0 0 512 512" id="Layer_3" version="1.1" viewBox="0 0 512 512" xml:space="preserve" xmlns="http://www.w3.org/2000/svg" xmlns:xlink="http://www.w3.org/1999/xlink"><g><g id="XMLID_335_"><g id="XMLID_26_"><path d="M17.4,16.9h287.9c5.5,0,10,4.5,10,10v128v139.5v128c0,5.5-4.5,10-10,10H122.8L17.4,16.9z      " fill="#ADABB1" id="XMLID_27_"/></g><path d="M17.4,16.9l203.9,64.3c4.2,1.3,7,5.2,7,9.5v394.4c0,6.8-6.6,11.6-13.1,9.5L17.4,430.2     V16.9" fill="#D8D7DA" id="XMLID_25_"/><path d="M491.2,213.5L381,115.7c-6.5-5.7-16.6-1.1-16.6,7.5v21.7c0,5.5-4.5,10-10,10H228.3v139.5     h126.1c5.5,0,10,4.5,10,10v20.8c0,8.8,10.5,13.3,16.9,7.3l110.2-104.2C495.7,224.2,495.6,217.4,491.2,213.5z" fill="#787680" id="XMLID_23_"/></g></g></svg>