<?xml version="1.0" ?><svg data-name="Maps &amp; Travel" height="60" id="Maps_Travel" viewBox="0 0 60 60" width="60" xmlns="http://www.w3.org/2000/svg"><title/><polygon points="39 9 21 3 3 9 3 57 21 51 39 57 57 51 57 3 39 9" style="fill:#eef6ff"/><polygon points="39 57 39 9 21 3 21 51 39 57" style="fill:#2c4b75;opacity:0.12"/><polygon points="21 48 3 54 3 57 21 51 39 57 57 51 57 48 39 54 21 48" style="fill:#2c4b75;opacity:0.2"/><polygon points="39 9 21 3 3 9 3 12 21 6 39 12 57 6 57 3 39 9" style="fill:#fff;opacity:0.75"/><path d="M3,58a1.00078,1.00078,0,0,1-1-1V9a1,1,0,0,1,.68359-.94873l18-6a1.002,1.002,0,0,1,.63281,0L39,7.9458,56.68359,2.05127A1.00055,1.00055,0,0,1,58,3V31a1,1,0,0,1-2,0V4.38721L39.31641,9.94873a1.002,1.002,0,0,1-.63281,0L21,4.0542,4,9.7207V55.61279l16.68359-5.56152a1.002,1.002,0,0,1,.63281,0l11,3.6665a1.0001,1.0001,0,1,1-.63281,1.89746L21,52.0542,3.31641,57.94873A1.00752,1.00752,0,0,1,3,58Z" style="fill:#6d6daa"/><path d="M21,52a1,1,0,0,1-1-1V3a1,1,0,0,1,2,0V51A1,1,0,0,1,21,52Z" style="fill:#6d6daa"/><path d="M39,33a1,1,0,0,1-1-1V9a1,1,0,0,1,2,0V32A1,1,0,0,1,39,33Z" style="fill:#6d6daa"/><circle cx="47" cy="47" r="12" style="fill:#99db6e"/><path d="M47,56A11.99482,11.99482,0,0,1,35.10364,45.5a12.00024,12.00024,0,1,0,23.79272,0A11.99487,11.99487,0,0,1,47,56Z" style="fill:#2c4b75;opacity:0.2"/><path d="M47,38A11.99487,11.99487,0,0,1,58.89636,48.5a12.00024,12.00024,0,1,0-23.79272,0A11.99482,11.99482,0,0,1,47,38Z" style="fill:#fff;opacity:0.5"/><path d="M47,60A13,13,0,1,1,60,47,13.01442,13.01442,0,0,1,47,60Zm0-24A11,11,0,1,0,58,47,11.01245,11.01245,0,0,0,47,36Z" style="fill:#6d6daa"/><path d="M47,54a1,1,0,0,1-1-1V41a1,1,0,0,1,2,0V53A1,1,0,0,1,47,54Z" style="fill:#fff"/><path d="M53,48H41a1,1,0,0,1,0-2H53a1,1,0,0,1,0,2Z" style="fill:#fff"/></svg>