<?xml version="1.0" ?><!DOCTYPE svg  PUBLIC '-//W3C//DTD SVG 1.1//EN'  'http://www.w3.org/Graphics/SVG/1.1/DTD/svg11.dtd'><svg enable-background="new 0 0 512 512" height="512px" id="Calque_1" version="1.1" viewBox="0 0 512 512" width="512px" xml:space="preserve" xmlns="http://www.w3.org/2000/svg" xmlns:xlink="http://www.w3.org/1999/xlink"><g><linearGradient gradientUnits="userSpaceOnUse" id="SVGID_1_" x1="103.9379" x2="369.0266" y1="359.9379" y2="94.8492"><stop offset="0" style="stop-color:#19FFF4"/><stop offset="1" style="stop-color:#009DFF"/></linearGradient><path d="M446.818,59.062H65.181C48.539,59.062,35,72.602,35,89.244v237.264   c0,16.643,13.539,30.182,30.181,30.182h31.373v88.45c0,2.9,1.594,5.543,4.171,6.904c1.115,0.584,2.37,0.894,3.627,0.894   c1.584,0,3.111-0.474,4.41-1.366l138.407-94.882h199.649c16.643,0,30.182-13.539,30.182-30.182V89.244   C477,72.602,463.461,59.062,446.818,59.062z M461.404,326.508c0,8.043-6.543,14.586-14.586,14.586H244.752   c-1.583,0-3.109,0.473-4.41,1.365L112.15,430.34v-81.448c0-4.3-3.498-7.798-7.798-7.798H65.181   c-8.042,0-14.585-6.543-14.585-14.586V89.244c0-8.042,6.543-14.585,14.585-14.585h381.637c8.043,0,14.586,6.543,14.586,14.585   V326.508z" fill="url(#SVGID_1_)"/><linearGradient gradientUnits="userSpaceOnUse" id="SVGID_2_" x1="76.2382" x2="341.3268" y1="332.2382" y2="67.1495"><stop offset="0" style="stop-color:#19FFF4"/><stop offset="1" style="stop-color:#009DFF"/></linearGradient><path d="M412.124,144.679H99.875c-4.3,0-7.798,3.498-7.798,7.798s3.498,7.798,7.798,7.798h312.249   c4.3,0,7.798-3.498,7.798-7.798S416.424,144.679,412.124,144.679z" fill="url(#SVGID_2_)"/><linearGradient gradientUnits="userSpaceOnUse" id="SVGID_3_" x1="103.0983" x2="368.1869" y1="359.0983" y2="94.0096"><stop offset="0" style="stop-color:#19FFF4"/><stop offset="1" style="stop-color:#009DFF"/></linearGradient><path d="M412.124,198.399H99.875c-4.3,0-7.798,3.498-7.798,7.798s3.498,7.798,7.798,7.798h312.249   c4.3,0,7.798-3.498,7.798-7.798S416.424,198.399,412.124,198.399z" fill="url(#SVGID_3_)"/><linearGradient gradientUnits="userSpaceOnUse" id="SVGID_4_" x1="129.9584" x2="395.047" y1="385.9584" y2="120.8697"><stop offset="0" style="stop-color:#19FFF4"/><stop offset="1" style="stop-color:#009DFF"/></linearGradient><path d="M412.124,252.119H99.875c-4.3,0-7.798,3.498-7.798,7.798s3.498,7.798,7.798,7.798h312.249   c4.3,0,7.798-3.498,7.798-7.798S416.424,252.119,412.124,252.119z" fill="url(#SVGID_4_)"/></g></svg>