<?xml version="1.0" ?><svg id="Layer_1" style="enable-background:new 0 0 100 100;" version="1.1" viewBox="0 0 100 100" xml:space="preserve" xmlns="http://www.w3.org/2000/svg" xmlns:xlink="http://www.w3.org/1999/xlink"><g><path d="M60.9,41.4c1.4-0.5,2.3-1.8,2.3-3.3c0-1.6-1-2.9-2.4-3.3v-6.1c1.4-0.5,2.4-1.8,2.4-3.3c0-1.8-1.3-3.2-3.1-3.5   c-0.2-4-2.7-7.3-6.1-8.8c-0.1-2.1-1.9-3.9-4-3.9c-2.2,0-3.9,1.7-4,3.9c-3.5,1.5-5.9,4.9-6.1,8.8c-1.7,0.2-3.1,1.7-3.1,3.5   c0,1.6,1,2.9,2.4,3.3v6.1c-1.4,0.5-2.4,1.8-2.4,3.3c0,1.5,1,2.8,2.3,3.3l-6.6,46.8c-0.1,0.7,0.1,1.3,0.5,1.8   c0.4,0.5,1.1,0.8,1.7,0.8h30.4c0.7,0,1.3-0.3,1.7-0.8c0.4-0.5,0.6-1.2,0.5-1.8L60.9,41.4z M40.3,47.4l0.8-5.8h12.4L40.3,47.4z    M38.3,61.9l22.1-9.7l1.2,8.7L36.9,71.7L38.3,61.9z M58.8,28.8v5.8H41.2v-5.8H58.8z M50,11.2c0.8,0,1.5,0.5,1.9,1.2   c-0.6-0.1-1.2-0.2-1.9-0.2c-0.6,0-1.3,0.1-1.9,0.2C48.5,11.7,49.2,11.2,50,11.2z M38.8,25.3c0-0.8,0.7-1.5,1.5-1.5h19.4   c0.8,0,1.5,0.7,1.5,1.5s-0.7,1.5-1.5,1.5H40.3C39.5,26.8,38.8,26.1,38.8,25.3z M40.3,36.6h19.4c0.8,0,1.5,0.7,1.5,1.5   s-0.7,1.5-1.5,1.5H40.3c-0.8,0-1.5-0.7-1.5-1.5S39.5,36.6,40.3,36.6z M34.6,88.7c0,0-0.1-0.1-0.1-0.2l0.3-2.4l28.5-12.5l1.2,8.7   l-15,6.6c0,0,0,0,0,0H34.8C34.7,88.8,34.6,88.8,34.6,88.7z"/><path d="M79.8,30.6H71c-0.6,0-1,0.4-1,1s0.4,1,1,1h8.8c0.6,0,1-0.4,1-1S80.3,30.6,79.8,30.6z"/><path d="M29.8,31.6c0-0.6-0.4-1-1-1h-8.5c-0.6,0-1,0.4-1,1s0.4,1,1,1h8.5C29.3,32.6,29.8,32.2,29.8,31.6z"/><path d="M25.7,22.9l6,2.3c0.1,0,0.2,0.1,0.4,0.1c0.4,0,0.8-0.2,0.9-0.6c0.2-0.5-0.1-1.1-0.6-1.3l-6-2.3c-0.5-0.2-1.1,0.1-1.3,0.6   C24.9,22.1,25.1,22.7,25.7,22.9z"/><path d="M67.7,25.4c0.1,0,0.3,0,0.4-0.1l5.8-2.6c0.5-0.2,0.7-0.8,0.5-1.3c-0.2-0.5-0.8-0.7-1.3-0.5l-5.8,2.6   c-0.5,0.2-0.7,0.8-0.5,1.3C67,25.2,67.4,25.4,67.7,25.4z"/><path d="M74.5,40.5l-6-2.3c-0.5-0.2-1.1,0.1-1.3,0.6s0.1,1.1,0.6,1.3l6,2.3c0.1,0,0.2,0.1,0.4,0.1c0.4,0,0.8-0.2,0.9-0.6   C75.3,41.3,75.1,40.7,74.5,40.5z"/><path d="M33.4,38.6c-0.2-0.5-0.8-0.7-1.3-0.5l-5.8,2.6c-0.5,0.2-0.7,0.8-0.5,1.3c0.2,0.4,0.5,0.6,0.9,0.6c0.1,0,0.3,0,0.4-0.1   l5.8-2.6C33.4,39.7,33.6,39.1,33.4,38.6z"/></g></svg>