<?xml version="1.0" ?><!DOCTYPE svg  PUBLIC '-//W3C//DTD SVG 1.1//EN'  'http://www.w3.org/Graphics/SVG/1.1/DTD/svg11.dtd'><svg enable-background="new 0 0 48 48" height="48px" version="1.1" viewBox="0 0 48 48" width="48px" xml:space="preserve" xmlns="http://www.w3.org/2000/svg" xmlns:xlink="http://www.w3.org/1999/xlink"><g id="Sketches_1_"><path d="M32.4,23.8c0.9-2.1,1.5-4.4,1.5-6.9C33.9,7.6,26.3,0,16.9,0C7.6,0,0,7.6,0,16.9s7.6,16.9,16.9,16.9   c2.5,0,4.8-0.5,6.9-1.5l3.6,3.6H36v8.6l3.4,3.4H48v-8.6L32.4,23.8z M12,18c-3.3,0-6-2.7-6-6c0-3.3,2.7-6,6-6c3.3,0,6,2.7,6,6   C18,15.3,15.3,18,12,18z" fill="#231F20"/></g><g id="Icons"/></svg>