<?xml version="1.0" ?><svg data-name="Layer 1" id="Layer_1" viewBox="0 0 32 32" xmlns="http://www.w3.org/2000/svg"><defs><style>.cls-1{fill:#414042;}</style></defs><title/><path class="cls-1" d="M12,19.25a0.5,0.5,0,0,0-.44.9l0.78,0.38-0.49.28a0.5,0.5,0,1,0,.5.87l0.49-.28-0.06.87a0.5,0.5,0,0,0,.47.53h0a0.5,0.5,0,0,0,.5-0.47l0.1-1.53,1.62-.93v1.87l-1.28.85a0.5,0.5,0,0,0,.55.83l0.72-.48V23.5a0.5,0.5,0,0,0,1,0V22.93l0.72,0.48a0.5,0.5,0,1,0,.55-0.83l-1.28-.85V19.87l1.62,0.93,0.1,1.53a0.5,0.5,0,0,0,.5.47h0a0.5,0.5,0,0,0,.47-0.53l-0.06-.87,0.49,0.28a0.5,0.5,0,1,0,.5-0.87l-0.49-.28,0.78-.38a0.5,0.5,0,1,0-.44-0.9l-1.38.68L17,19l1.62-.93L20,18.75a0.5,0.5,0,1,0,.44-0.9l-0.78-.38,0.49-.28a0.5,0.5,0,0,0-.5-0.87l-0.49.28,0.06-.87a0.5,0.5,0,1,0-1-.06l-0.1,1.53-1.62.93V16.27l1.28-.85a0.5,0.5,0,1,0-.55-0.83l-0.72.48V14.5a0.5,0.5,0,0,0-1,0v0.57l-0.72-.48a0.5,0.5,0,0,0-.55.83l1.28,0.85v1.87l-1.62-.93-0.1-1.53a0.5,0.5,0,0,0-1,.06l0.06,0.87-0.49-.28a0.5,0.5,0,0,0-.5.87l0.49,0.28-0.78.38a0.5,0.5,0,1,0,.44.9l1.38-.68L15,19l-1.62.93Z"/><path class="cls-1" d="M23.5,0H8.5A2.5,2.5,0,0,0,6,2.5v26A2.5,2.5,0,0,0,8.5,31H9v0.5a0.5,0.5,0,0,0,1,0V31H22v0.5a0.5,0.5,0,0,0,1,0V31h0.5A2.5,2.5,0,0,0,26,28.5V2.5A2.5,2.5,0,0,0,23.5,0ZM25,28.5A1.5,1.5,0,0,1,23.5,30H8.5A1.5,1.5,0,0,1,7,28.5V10H25V28.5ZM25,9H7V2.5A1.5,1.5,0,0,1,8.5,1h15A1.5,1.5,0,0,1,25,2.5V9Z"/><path class="cls-1" d="M9.5,6H9V3.5a0.5,0.5,0,0,0-1,0v3a0.5,0.5,0,0,0,.5.5h1A0.5,0.5,0,0,0,9.5,6Z"/><path class="cls-1" d="M8.5,19.5A0.5,0.5,0,0,0,9,19V13H9.5a0.5,0.5,0,0,0,0-1h-1a0.5,0.5,0,0,0-.5.5V19A0.5,0.5,0,0,0,8.5,19.5Z"/><path class="cls-1" d="M11.5,29h12a0.5,0.5,0,0,0,.5-0.5v-17a0.5,0.5,0,0,0-1,0V28H11.5A0.5,0.5,0,0,0,11.5,29Z"/><path class="cls-1" d="M23.5,2h-12a0.5,0.5,0,0,0,0,1H23V7.5a0.5,0.5,0,0,0,1,0v-5A0.5,0.5,0,0,0,23.5,2Z"/></svg>